<?xml version="1.0" standalone="no"?>
<!DOCTYPE svg PUBLIC "-//W3C//DTD SVG 1.1//EN" "http://www.w3.org/Graphics/SVG/1.1/DTD/svg11.dtd" >
<svg xmlns="http://www.w3.org/2000/svg" xmlns:xlink="http://www.w3.org/1999/xlink" version="1.1">
<metadata>
Created by FontForge 20200314 at Wed Sep 24 07:04:27 2014
 By Unknown
Copyright (c) Active Images, 1999. All rights reserved.
</metadata>
<defs>
<font id="CCHookyOpenW00-Regular" horiz-adv-x="736" >
  <font-face 
    font-family="CCHookyOpenW00-Regular"
    font-weight="400"
    font-stretch="normal"
    units-per-em="1000"
    panose-1="3 0 6 0 2 0 0 2 0 4"
    ascent="800"
    descent="-200"
    x-height="586.5"
    cap-height="845"
    bbox="-179 -311 1504 915"
    underline-thickness="50"
    underline-position="-175"
    unicode-range="U+0020-F8FF"
  />
<missing-glyph horiz-adv-x="1000" 
 />
    <glyph glyph-name=".notdef" horiz-adv-x="1000" 
 />
    <glyph glyph-name="glyph1" horiz-adv-x="0" 
 />
    <glyph glyph-name="glyph1" horiz-adv-x="0" 
 />
    <glyph glyph-name="glyph2" horiz-adv-x="249" 
 />
    <glyph glyph-name="space" unicode=" " horiz-adv-x="249" 
 />
    <glyph glyph-name="exclam" unicode="!" horiz-adv-x="327" 
d="M182 277l-79 -4l-19 -52l-127 -6l61 511l47 11l10 89l338 81zM142 13l10 -47l-187 -16l-18 134l62 27l-9 69l210 91l52 -248zM109 796l-57 -487l103 4l198 541zM183 218l-142 -61l15 -114l161 14z" />
    <glyph glyph-name="quotedbl" unicode="&#x22;" horiz-adv-x="442" 
d="M315 386l-69 4l-27 -58l-132 8l51 155l-34 14l-25 -75l-106 41l20 235l48 5l9 97l244 30l-18 -55l234 25zM288 751l-104 -320l107 -6l157 343zM84 778l-18 -214l85 -34l89 267z" />
    <glyph glyph-name="numbersign" unicode="#" horiz-adv-x="557" 
d="M543 165l-69 -4l-1 -114l-105 -40v-23l-176 -66l19 147l-56 -14l-4 -35l-165 -41l23 109l-56 -3l-17 115l64 14l-12 85l68 15l2 9l-93 -13l46 137l29 8l32 93l35 9l6 31l44 29l14 66l163 107l-19 -166l14 9l9 64l144 92l-2 -129l82 22l-15 -248l-70 -10v-18l128 28z
M439 355l1 98l71 10l10 165l-79 -22l1 110l-70 -45l-12 -87l-90 -25l17 152l-84 -55l-25 -122l-78 -21l-38 -112l91 13l-27 -127l-97 -21l14 -92l60 4l-22 -106l138 34l8 79l82 4l-23 -172l149 56l1 124l76 4l42 180zM328 331l-85 -18l13 115l86 12z" />
    <glyph glyph-name="dollar" unicode="$" horiz-adv-x="506" 
d="M511 373q10 -36 3.5 -76.5t-28.5 -79.5t-58 -72.5t-85 -56.5l-24 -96l-97 -48l-6 -24l-104 -42l2 121q-35 1 -59.5 10.5t-40.5 25.5t-24.5 35.5t-10.5 39.5t0 38t8 31l49 12q-2 23 1 40q-39 -1 -68 15t-34 61q-7 48 14 95t55 84q14 36 37.5 68t51.5 56v66l55 10v91
l278 47l-50 -150q55 0 83.5 -21.5t38 -55t3.5 -74t-21 -78.5l-42 -8q26 -8 45.5 -23t27.5 -41zM475 362q-7 25 -30.5 36.5t-54.5 13.5t-65.5 -3t-64.5 -13q-31 -8 -47 -6t-21.5 10t-3.5 20t7 23.5t11 21t8 11.5q9 12 26 21t34 9t29.5 -12t12.5 -43l137 27q12 33 14.5 64
t-11 53.5t-45.5 33t-89 3.5l48 145l-184 -31v-119q-31 -14 -61.5 -39.5t-53.5 -58t-36 -68.5t-8 -72q5 -38 28.5 -52t59.5 -13q39 1 77 11t76 19q39 9 55 -1t17.5 -28.5t-6.5 -40t-19 -33.5q-9 -10 -20.5 -18t-24 -10.5t-25 0.5t-22.5 14q-5 5 -8.5 18t-2.5 26l-135 -33
q-7 -19 -6.5 -45.5t14 -51t42.5 -42t79 -17.5l-1 -114l82 40l24 97q49 21 84 51.5t55 65t26.5 68.5t-1.5 62z" />
    <glyph glyph-name="percent" unicode="%" horiz-adv-x="659" 
d="M660 141q-4 -31 -20 -61.5t-39.5 -57t-53 -47.5t-61.5 -32q-27 -26 -59.5 -43.5t-65.5 -21.5q-51 -5 -92 19.5t-65 64.5l-28 -60l-50 42l-39 -82l-147 123l218 367q-28 -13 -53 -16q-37 -4 -68.5 10.5t-54 40t-34 59.5t-7.5 68q5 47 22.5 86t47.5 66q22 64 72 106t127 47
q33 2 59 -5.5t46.5 -23t35 -36.5t23.5 -46l57 97l154 -43l-175 -369q64 19 114.5 5.5t83.5 -49.5t47 -90.5t5 -117.5zM623 146q6 44 -0.5 84.5t-25.5 72t-50.5 49t-75.5 14.5q-16 -1 -31 -4.5t-32 -10.5t-37 -18.5t-46 -28.5l207 434l-83 23l-97 -162q-6 92 -40.5 140
t-99.5 43q-39 -3 -70.5 -18t-54 -39.5t-36.5 -58t-18 -73.5q-3 -33 7.5 -64t31.5 -54.5t50 -36.5t62 -10q6 1 13 2.5t16.5 5t23.5 10t34 16.5l-235 -394l127 -106l105 222q2 -52 16 -93.5t37.5 -69.5t54 -41t64.5 -10q31 3 61.5 20t56 42t43.5 54.5t22 59.5zM263 553
q-10 -38 -36.5 -59.5t-51.5 -23.5q-15 -1 -27.5 6t-20.5 19t-10.5 27t2.5 31q11 36 33 56t43 27q20 6 36 2.5t25 -14.5t11.5 -29.5t-4.5 -41.5zM521 103q-11 -38 -37.5 -59.5t-50.5 -23.5q-15 -1 -27.5 6t-20.5 19t-10.5 27.5t2.5 30.5q11 36 33 56.5t43 26.5
q40 12 60.5 -12t7.5 -71zM176 507q-1 28 -21 37v-2q-6 -18 3 -27t15 -8h3v0zM433 58q0 26 -20 36l-1 -2q-5 -17 4 -26t14 -9q2 0 3 1z" />
    <glyph glyph-name="ampersand" unicode="&#x26;" horiz-adv-x="575" 
d="M542 -24l-97 -33l-5 -28l-243 -83l27 143q-46 -24 -89 -36q-18 -5 -37.5 -8.5t-38.5 -3t-36 5.5t-30 17q-36 32 -47 69.5t-4.5 75.5t26.5 74t46 66q8 20 19.5 38t23.5 35q-23 5 -45 16.5t-37 30t-20.5 43.5t4.5 56q9 28 24.5 52.5t35.5 46.5q18 46 57 89t89.5 77
t108 56.5t110.5 29t98 -6t71 -48.5t28 -99t-30 -157l-87 -21q-3 -9 -6 -18.5t-6 -19.5l-37 -9l-11 -82l208 55zM394 303q-9 -41 -33 -62.5t-50 -23.5q-15 -2 -27 2.5t-20 14t-9.5 24t4.5 32.5q9 23 22.5 36.5t30.5 21.5q14 7 28.5 10.5t28.5 8.5l7 53q-23 -2 -48.5 1.5
t-46.5 12.5q-13 6 -23 14.5t-14.5 20t-1.5 26t15 31.5q27 38 51 49t41 3t25 -31.5t3 -54.5l145 34q26 80 22 131t-26.5 79t-56.5 35t-69 -2q-56 -14 -111 -35.5t-101 -51.5t-80 -67.5t-49 -84.5q-10 -33 -1 -58t32 -41.5t58.5 -25t78.5 -7.5q-32 -19 -63 -45.5t-56.5 -57.5
t-42.5 -64.5t-22 -67t5.5 -65.5t40.5 -59q16 -14 37.5 -17.5t46 0t49.5 11.5t46.5 16.5t37.5 17t23 11.5l-27 -147l215 73l57 344z" />
    <glyph glyph-name="quotesingle" unicode="'" horiz-adv-x="210" 
d="M173 482l-66 25l-28 -73l-106 41l37 235l43 5l15 97l245 30zM101 778l-35 -215l86 -33l104 267z" />
    <glyph glyph-name="parenleft" unicode="(" horiz-adv-x="365" 
d="M396 743q-33 -15 -64.5 -40t-58 -58t-46 -72t-29.5 -81q-12 -53 -3.5 -102t32.5 -89.5t61 -70t82 -44.5l-74 -271q-20 6 -39 14t-36 17l-22 -80q-72 22 -125 71.5t-85.5 116t-43.5 145t0 157.5q8 53 34 106.5t64 104.5q24 47 59 92t77.5 84.5t91 71t99.5 51.5l26 -123v0z
M343 815q-52 -24 -104 -66t-94 -93.5t-71 -109t-37 -111.5q-10 -77 0 -152t40 -138.5t78.5 -111.5t114.5 -71l55 200q-41 16 -77 49t-59.5 78t-31.5 99t5 112q10 44 30 85t45.5 76t55.5 62t60 42z" />
    <glyph glyph-name="parenright" unicode=")" horiz-adv-x="365" 
d="M370 338q-7 -55 -35 -111t-70 -108.5t-94.5 -98.5t-110.5 -80q-32 -20 -61.5 -41t-60.5 -34l-15 74q15 8 31 18t31 24l-11 53q32 14 63 36.5t54 55.5q11 16 15.5 35t9.5 39q13 58 4 111.5t-33 97t-60 74.5t-77 44l61 224q8 -2 15 -5t14 -5l34 121q88 -26 149.5 -80.5
t97.5 -125.5t48 -153.5t1 -164.5zM333 343q11 77 0.5 151.5t-40.5 138t-78.5 111.5t-114.5 71l-55 -200q41 -16 77 -49t59.5 -78t32 -99t-5.5 -112q-10 -44 -30 -85t-45.5 -76t-55.5 -62t-60 -42l10 -49q53 24 104.5 66t93.5 93.5t71.5 109t36.5 111.5z" />
    <glyph glyph-name="asterisk" unicode="*" horiz-adv-x="442" 
d="M398 562l78 -50l-94 -182l-45 42l-42 -81l-40 37l-77 -27l-9 -28l-90 -32l13 119l-102 -64l-46 120l69 39l-20 52l26 15l-52 41l50 64l-5 13l78 99l79 -43l10 79l228 43l-28 -92l40 26l64 -129zM404 698l-91 -58l40 130l-140 -27l-13 -105l-100 53l-36 -46l104 -83
l-128 -72l36 -95l112 69l-14 -125l65 24l36 117l96 -89l56 108l-95 61l103 75z" />
    <glyph glyph-name="plus" unicode="+" horiz-adv-x="482" 
d="M444 308l-92 -18l-9 -41l-43 -8l-34 -154l-80 34l-18 -79l-103 43l7 111l-126 -24l20 155l46 13l11 87l65 18l3 43l51 21l5 76l255 106l-38 -170l138 38zM313 468l36 160l-166 -69l-8 -129l-118 -33l-16 -129l125 24l-8 -119l81 -34l39 175l135 26l38 166z" />
    <glyph glyph-name="comma" unicode="," horiz-adv-x="210" 
d="M153 -107l-69 27l-26 -74l-106 41l25 238l47 5l10 97l244 30zM68 193l-23 -218l85 -33l93 270z" />
    <glyph glyph-name="hyphen" unicode="-" horiz-adv-x="341" 
d="M306 288l-92 -21l-9 -38l-255 -60l20 155l47 17l10 81l338 121zM61 395l-16 -130l230 54l38 166z" />
    <glyph glyph-name="period" unicode="." horiz-adv-x="273" 
d="M254 29l-99 -17l-4 -42l-170 -29l23 164l46 17l11 81l219 80zM95 176l-19 -140l144 25l17 166z" />
    <glyph glyph-name="slash" unicode="/" horiz-adv-x="570" 
d="M196 -98l-50 42l-39 -82l-147 123l491 820l154 -43zM469 761l-413 -693l127 -106l369 776z" />
    <glyph glyph-name="zero" unicode="0" 
d="M762 351q-7 -47 -31 -94t-59.5 -89t-80 -77t-93.5 -59q-47 -38 -100.5 -62.5t-107.5 -29.5q-77 -8 -143.5 21t-114 80t-71.5 118t-16 136q8 76 34 141.5t70 117.5q35 73 87 124t113.5 81t127.5 38.5t128 -4.5t115.5 -47.5t90 -89.5t51.5 -131.5t0 -173.5zM725 357
q12 78 -0.5 153t-49.5 133t-99 91.5t-149 28.5q-87 -6 -155 -37t-117.5 -82t-79 -120t-38.5 -150q-7 -66 16 -130.5t69 -114t109.5 -77t137.5 -20.5q60 6 120 37t109.5 77t83.5 101t43 110zM460 251q-15 -63 -48.5 -93.5t-69.5 -32.5q-23 -2 -39.5 11t-25.5 35t-10 48t5 50
q16 61 43.5 91t59.5 41q31 11 51.5 2t31 -30.5t11 -53.5t-8.5 -68zM368 174q15 62 3.5 99.5t-43.5 39.5q-13 -23 -18.5 -50t-3.5 -50t10.5 -37.5t22.5 -13.5q7 1 13.5 2.5t14.5 6.5l1 3v0z" />
    <glyph glyph-name="one" unicode="1" horiz-adv-x="312" 
d="M315 50l-97 -27l-5 -33l-324 -90l36 241l45 16l12 83l16 5l34 200l-87 -26l44 234l42 11l16 89l287 78l-55 -535l74 16zM237 248l54 532l-211 -57l-39 -206l87 26l-53 -310l-59 -21l-32 -215l298 83l26 184z" />
    <glyph glyph-name="two" unicode="2" horiz-adv-x="620" 
d="M560 85l-95 -39l-6 -23l-337 -137l-174 133l62 63l-20 14q60 62 128 129.5t131 134.5v4.5t-1 7t-4.5 5.5t-9.5 0l-92 -33q-4 -7 -6 -14l-4 -14l-200 -72l50 425l47 13l10 87l284 79l-5 -75q57 31 109 31t92.5 -23t67.5 -64t35 -91.5t-6.5 -105.5t-56.5 -106l-106 -128
l184 95zM307 168l223 270q41 49 52 100t0.5 95.5t-38 77.5t-64.5 47q-35 13 -68 7.5t-60.5 -18.5t-47.5 -29t-29 -24l7 103l-209 -58l-46 -396l174 62q6 23 22 46t35 37q24 17 48 11t34 -47q5 -20 -4 -39t-22 -36t-28.5 -33t-30.5 -32l-208 -212l157 -120l324 132l52 197z
" />
    <glyph glyph-name="three" unicode="3" horiz-adv-x="575" 
d="M607 229q-32 -89 -84.5 -149.5t-136.5 -100.5q-40 -34 -92 -58.5t-121 -42.5q-39 -11 -83 -3.5t-76 37.5t-45.5 85.5t7.5 142.5l45 11q2 20 5 42.5t9 47.5l112 26l1 36q14 6 27 10.5t26 10.5l2 71l-54 -16q-5 -12 -7 -32l-198 -59l32 362l49 13l8 87l311 81l-8 -71
q18 7 41.5 13t48.5 7.5t49.5 -3.5t45.5 -21q53 -40 67 -89.5t3 -99t-38.5 -95.5t-56.5 -78q26 -6 52 -18.5t43.5 -33t23.5 -48.5t-8 -65zM572 241q11 31 1 55t-35.5 39t-63 21t-81.5 1q30 22 58.5 51t51 62t37 68t16.5 68.5t-11 64.5t-46 55q-25 19 -57.5 18.5t-63 -9
t-54.5 -21t-33 -17.5l9 84l-232 -61l-30 -335l172 52q6 41 28 64t48 28q14 3 26.5 0t21 -12t11.5 -23t-2 -33q-7 -24 -19 -38.5t-28 -24.5q-13 -8 -27.5 -13t-28.5 -10l-2 -54q23 5 48.5 6.5t47.5 -2.5q28 -6 38.5 -19.5t8.5 -31t-13.5 -35.5t-28 -32t-34.5 -22t-33.5 -5
t-24.5 19.5t-8 51.5l-173 -41q-18 -81 -5 -132t43 -78t70 -33t76 3q67 18 118.5 42.5t90.5 57.5t66.5 75t46.5 96z" />
    <glyph glyph-name="four" unicode="4" horiz-adv-x="612" 
d="M609 22l-101 -44l-2 -19l-296 -129l44 345l-282 -99l38 357l-72 -35l28 255l48 15l9 84l365 112l-44 -278l16 5l15 86l238 74l-44 -443l72 30zM526 249l44 449l-162 -50l-41 -238l-95 -34l70 434l-284 -87l-25 -224l72 35l-38 -360l282 100l-44 -344l269 118l23 231z" />
    <glyph glyph-name="five" unicode="5" horiz-adv-x="632" 
d="M652 439q32 -40 33 -98t-27.5 -120t-85.5 -121.5t-141 -101.5q-38 -30 -84 -54.5t-103 -41.5q-61 -19 -102 -13.5t-66 25.5t-37 51.5t-14.5 64.5t2 64t11.5 50l41 11q1 11 3 22l4 22q-27 -7 -51 -13.5t-47 -13.5l35 243l-72 -28l20 280l50 6l7 96l574 67l-31 -353
q17 -4 41.5 -15t39.5 -29zM623 415q-15 19 -42 27t-60 8.5t-70.5 -5t-73.5 -14t-68.5 -18t-56.5 -16.5l4 134l126 20l-6 -71l160 34l24 280l-497 -58l-18 -250l73 28l-35 -244q51 14 110.5 28.5t140.5 39.5q44 14 71 12t38 -15.5t8 -36t-18 -51.5q-27 -53 -61 -64t-62 15
q-9 8 -8.5 28t10.5 40l-184 -53q-6 -19 -9.5 -47.5t-0.5 -58.5t14 -58t34.5 -45.5t61 -22t92.5 12.5q73 22 129 56t95 74t63 82t33 81.5t4.5 73t-21.5 54.5zM359 219q3 21 -9 30q-11 -11 -13.5 -16.5t-0.5 -7.5q11 -11 23 -6z" />
    <glyph glyph-name="six" unicode="6" horiz-adv-x="644" 
d="M614 482l-81 -19q16 -2 28 -6q53 -19 76 -55.5t23 -82.5t-21 -97t-57 -99.5t-84.5 -89t-104.5 -65.5q-27 -21 -57.5 -39.5t-63.5 -30.5t-69 -15.5t-74 4.5q-52 11 -90 40.5t-62.5 74t-35.5 101.5t-9 122q2 52 12 101t26.5 93.5t38 83t45.5 68.5q24 50 55 90t67.5 65.5
t77.5 32.5t84 -9l-1 53l318 64zM375 773l1 -92q-19 14 -39 25q-17 9 -39.5 14.5t-46.5 0.5q-36 -7 -74.5 -42.5t-71.5 -92t-55.5 -129t-25.5 -152.5q-2 -64 8.5 -119.5t34 -98t60 -70.5t84.5 -38q45 -9 87.5 -1.5t81 25.5t72.5 44t62 54q41 39 69.5 87t37 94t-7.5 84t-64 55
q-24 9 -62.5 6t-84 -13.5t-95.5 -27t-96 -34.5q6 42 20 77t31.5 60.5t36 40t34.5 15.5q16 2 27.5 -4.5t19.5 -17.5t12 -25t5 -27l182 41l34 308zM297 424q-6 15 -19 24q-5 -8 -9 -17t-7 -19q13 5 35 12zM400 236q-25 -45 -54.5 -64t-56.5 -14.5t-48 33.5t-28 80
q48 25 87 36.5t66 8.5q32 -3 42.5 -24.5t-8.5 -55.5zM319 198q-2 16 -16.5 22t-39.5 4q21 -44 56 -26z" />
    <glyph glyph-name="seven" unicode="7" horiz-adv-x="611" 
d="M375 199l87 -116l-123 -64l16 -21l-269 -140l-133 104l59 64l-26 25l316 347l-130 -30l9 -32l-231 -58l32 379l49 9l8 92l589 105l15 -347zM592 818l-518 -92l-30 -352l202 51l-17 61l225 24l-413 -454l115 -89l249 129l-78 104l278 329z" />
    <glyph glyph-name="eight" unicode="8" horiz-adv-x="594" 
d="M516 404q51 -14 78.5 -45t34 -71t-6.5 -85t-41.5 -88t-71.5 -81t-97 -63q-45 -40 -101 -63t-119 -27q-32 -2 -65.5 1.5t-63 14.5t-53.5 30t-37 48q-21 45 -18.5 84t16 71t32 57t29.5 42q-16 11 -36.5 24t-37.5 34q-25 32 -29.5 79t3.5 95t26 89t39 60q11 29 23.5 51
t39.5 47q65 61 131.5 92t128 38t115.5 -7t94.5 -44.5t64.5 -73.5t25.5 -93.5t-23 -106t-80.5 -109.5zM591 240q8 34 -3.5 60t-36.5 42.5t-61.5 23.5t-78.5 3q45 32 85 72.5t62.5 86t22 95t-37.5 100.5q-29 40 -79.5 61.5t-112.5 19t-131 -31.5t-135 -91q-19 -18 -36 -57.5
t-25 -85t-3.5 -90t27.5 -73.5q18 -24 44.5 -39t49.5 -34q-38 -31 -59 -63t-29.5 -63.5t-5 -61t15.5 -54.5q12 -26 34 -43.5t50 -28t59.5 -14t63.5 -1.5q57 4 109 24.5t94.5 55t73 82t43.5 105.5zM349 446q-6 -20 -19 -37t-29 -29t-33 -19t-31 -7q-22 0 -43.5 15t-26.5 39
q-6 26 12.5 53t66.5 50q19 9 40 9t37 -8.5t24.5 -25t1.5 -40.5zM367 244q-5 -29 -17.5 -49.5t-29 -33.5t-34.5 -19.5t-35 -7.5q-25 -2 -46.5 9t-26.5 35q-6 23 9 50.5t53 56.5q20 15 43.5 18t43 -3t31.5 -20.5t9 -35.5zM257 397q-5 15 -19.5 23t-32.5 8q-3 -7 -1 -12
q2 -9 12 -16.5t21 -7.5q7 0 20 5zM275 177q-2 17 -18 26t-36 9q-6 -10 -7 -16t0 -10q3 -11 21.5 -14.5t39.5 5.5z" />
    <glyph glyph-name="nine" unicode="9" horiz-adv-x="678" 
d="M619 252l73 17l-53 -246l-96 -35l-5 -26l-315 -114l59 273q-29 -17 -60 -29q-26 -11 -58.5 -19.5t-63.5 -7.5q-97 3 -130.5 74t-18.5 195q8 71 32.5 125t59.5 95q32 71 83 119t108 73.5t114.5 28.5t103.5 -15l12 44l270 57zM494 772l-17 -68q-32 20 -74 26.5t-87.5 -1.5
t-90 -31t-82 -62t-64.5 -94.5t-36 -129.5q-15 -123 17 -187.5t120 -67.5q30 -1 61.5 7.5t59 20.5t49 23.5t30.5 17.5l-60 -279l287 104l36 168l-71 -16l115 610zM404 326q-20 -18 -40 -30q-17 -11 -37 -16t-37 4q-29 15 -34 45.5t5.5 63t31.5 60.5t44 38q19 8 36 4.5
t31 -11.5q16 -9 29 -23zM339 377q-5 5 -10 9t-11 8t-14 6q-7 -16 -9.5 -33t-0.5 -29.5t10 -18.5t22 -2l13 60v0z" />
    <glyph glyph-name="colon" unicode=":" horiz-adv-x="273" 
d="M233 321l-93 -25l-8 -35l-162 -43l20 155l47 21l10 76l246 109zM152 13l10 -47l-187 -16l-18 134l62 27l-9 69l210 91l52 -248zM81 444l-16 -129l137 36l37 163zM193 218l-142 -61l15 -114l161 14z" />
    <glyph glyph-name="semicolon" unicode=";" horiz-adv-x="268" 
d="M233 321l-93 -25l-8 -35l-162 -43l20 155l47 21l10 76l246 109zM143 -107l-69 27l-26 -74l-106 41l25 238l47 5l10 97l244 30zM81 444l-16 -129l137 36l37 163zM58 193l-23 -218l85 -33l93 270z" />
    <glyph glyph-name="less" unicode="&#x3c;" horiz-adv-x="365" 
d="M180 440l218 -269l-131 -300l-43 67l-41 -95l-303 467l58 67l-9 15l386 447l89 -58zM134 437l218 333l-30 20l-346 -401l285 -439l94 215z" />
    <glyph glyph-name="equal" unicode="=" horiz-adv-x="376" 
d="M307 390l-88 -13l-6 -22l151 32l-101 -218l-74 -6l-23 -50l-204 -17l-17 115l65 13l-12 78l-29 -4l46 137l29 7l31 94l289 70zM104 504l-37 -111l210 30l35 132zM39 281l14 -92l185 16l60 130z" />
    <glyph glyph-name="greater" unicode="&#x3e;" horiz-adv-x="373" 
d="M68 -87l-21 24l-48 -67l-39 44l43 72l-7 8l165 279l-196 282l45 70l-9 13l179 277l239 -506zM175 838l-128 -199l202 -291l-207 -349l23 -26l311 440z" />
    <glyph glyph-name="question" unicode="?" horiz-adv-x="487" 
d="M499 453l8 -2l-82 -236l-41 -10l48 -231l-120 -11l10 -47l-187 -16l-18 134l62 27l-8 58l-32 -7l-116 142l69 54l-25 30q48 36 96 73.5t96 75.5q-2 4 -8 10l-79 -23l-23 -40l-200 -54l51 328l44 9l14 92l284 59l-6 -65q63 27 114.5 25t88 -23.5t57 -59t21 -82t-19.5 -91
t-64 -87.5zM508 512q41 38 57.5 81t13 82t-24.5 68.5t-56 39.5t-68.5 6t-61.5 -14t-48 -22t-28 -18l8 86l-209 -43l-47 -301l175 48q7 17 23 34.5t35 27.5q11 6 22.5 8.5t22.5 -0.5t20 -11.5t15 -25.5q5 -17 -5 -33t-22 -28q-14 -14 -29 -25.5t-30 -23.5l-150 -116l103 -126
l172 41l49 140l-130 -50l193 175v0zM353 168l-142 -61l15 -114l161 14z" />
    <glyph glyph-name="at" unicode="@" 
d="M747 383q-9 -41 -28 -83.5t-47 -79.5t-63.5 -66t-76.5 -44q-58 -58 -144 -75l-1 -28q-56 -12 -102 -8l-2 -52q-75 -17 -140 5.5t-112 72.5t-71 120.5t-15 149.5q8 75 33.5 140.5t68.5 116.5q35 74 87.5 125.5t114 81t127.5 37.5t127.5 -4t114.5 -44.5t87.5 -84t47.5 -122
t-6 -158.5zM711 391q14 66 4 134.5t-45 123t-95.5 87t-147.5 27.5q-87 -6 -155 -37t-117.5 -82t-79 -120t-38.5 -150q-8 -75 14.5 -142.5t66 -115t104 -70t129.5 -9.5l1 33q-8 -1 -14.5 -1.5t-14.5 0.5q-58 3 -98.5 33.5t-63 75t-27.5 97t8 101.5q32 121 98 179t157 71
q36 5 72 -1t67.5 -24t55 -46.5t34 -68t4.5 -89.5t-34 -110q-9 -21 -30.5 -45.5t-68.5 -38.5l39 333l-116 27l-5 -65q-34 18 -64.5 15t-55.5 -20t-43.5 -46t-29.5 -63.5t-13 -70.5t6 -69q9 -35 20 -54.5t27 -27t38 -5.5t52 9q11 2 32 11.5t34 16.5v-73q11 0 29 2.5t39.5 8.5
t45 16.5t45.5 26.5q20 15 41 39t39.5 52.5t32.5 60.5t21 64zM413 251q-18 -17 -36 -25q-15 -7 -31 -4t-27 27q-12 27 -7.5 54.5t18.5 47.5q8 10 17.5 17t21.5 9t25 -1.5t27 -14.5z" />
    <glyph glyph-name="A" unicode="A" horiz-adv-x="590" 
d="M514 0v-11l-216 -111l-25 218l-13 -54l-93 -25l-8 -35l-254 -68l123 459l-77 -19l84 325l35 7l25 94l384 78l51 -530l86 42l3 -316zM579 310l-81 -39l-52 542l-321 -65l-77 -297l78 19l-123 -458l226 60l23 97l111 28l25 -220l193 100zM256 225l88 332l24 -285z" />
    <glyph glyph-name="B" unicode="B" horiz-adv-x="556" 
d="M589 232q-10 -47 -27.5 -83t-42 -65t-55 -52.5t-67.5 -46.5q-48 -30 -108 -58t-135 -49l-199 84l50 413l-75 -45l29 280q12 10 24.5 19t25.5 17l6 57q104 82 198 110t168.5 17t125 -54.5t67 -105.5t-4.5 -134.5t-89 -141.5q24 -6 47 -18.5t39.5 -32t23.5 -47.5t-1 -64z
M553 240q7 33 -4 57t-35.5 39t-60.5 20t-79 1q44 32 84 74t62.5 90t22 99.5t-37.5 102.5q-28 39 -76.5 58.5t-108.5 15.5t-129 -31.5t-140 -82.5l-26 -250l76 46l-52 -429l186 -79q67 19 120 41.5t93 53.5t66 73t39 101zM309 457q-5 -32 -16.5 -49.5t-26.5 -28.5
q-17 -13 -36 -24t-37 -22l5 172q34 11 60 11q22 0 39 -12t12 -47zM311 234q-2 -31 -20.5 -53.5t-40.5 -36.5q-26 -17 -58 -28l-2 152q21 17 43 26.5t40 7.5t29 -18t9 -50z" />
    <glyph glyph-name="C" unicode="C" horiz-adv-x="620" 
d="M615 396l-101 -43l-2 -20l-56 -24q20 -20 44.5 -51.5t46.5 -60.5q26 -34 51 -71q-4 -5 -13.5 -17t-26 -27.5t-41 -33t-59.5 -32.5q-14 -11 -34 -24.5t-47.5 -27.5t-62 -26.5t-78.5 -20.5q-38 -7 -81.5 5.5t-82.5 42t-69.5 75t-42.5 104.5q-18 86 -17 154.5t13.5 122
t34 92t44.5 63.5q20 47 46 78.5t52 51.5q27 20 55 28.5t54.5 8.5t50 -6.5t42.5 -16.5v43l332 65zM373 732v-107q-14 23 -38 42.5t-53.5 29.5t-62 6.5t-63.5 -27.5q-25 -19 -52 -54t-45.5 -89.5t-22.5 -130.5t16 -176q12 -57 41 -100.5t66.5 -71.5t78.5 -40t76 -5
q56 11 97 27.5t70 34t46 33t24 23.5q-6 9 -18 26t-26 36t-28 37.5t-25 30.5q-29 -30 -71 -46t-80.5 -15.5t-65.5 20t-27 60.5q0 34 3.5 57.5t13.5 40.5t28 31t46 28q14 7 31 5.5t33.5 -11t30 -28.5t19.5 -48l165 71l44 359zM325 253q-3 23 -10 40t-17 28.5t-21.5 17.5
t-22.5 7q-5 -12 -6 -29t-1 -41q0 -30 21 -41t51 -5.5t64 25t61 49.5z" />
    <glyph glyph-name="D" unicode="D" horiz-adv-x="577" 
d="M548 238q-19 -41 -45 -81.5t-61.5 -78.5t-80.5 -74t-103 -67q-20 -15 -41.5 -28.5t-44.5 -26.5l-205 86l37 417l-75 -47l19 284q25 20 52 38l4 55q75 61 151 93t145.5 37.5t129 -15.5t102.5 -66q40 -42 60.5 -100.5t22.5 -127.5t-15 -145t-52 -153zM514 254
q35 74 50.5 145.5t13.5 135t-20.5 115.5t-52.5 88q-36 38 -87 56.5t-112 14.5t-129 -31.5t-137 -81.5l-17 -254l76 47l-39 -433l191 -80q51 28 91.5 60.5t72.5 68t56.5 73.5t42.5 76zM322 410q-6 -50 -19.5 -82.5t-31.5 -54.5q-18 -23 -41.5 -40t-46.5 -34l10 281
q41 21 72 23q13 1 25 -2.5t20.5 -14t12 -29t-0.5 -47.5z" />
    <glyph glyph-name="E" unicode="E" horiz-adv-x="585" 
d="M598 449l-98 -17l-5 -41l-113 -21l4 -70l171 54l1 -297l-105 -37v-25l-328 -117l-148 118l54 421l-89 -32l29 279l47 4l11 99l616 58zM63 733l-27 -250l90 32l-56 -433l137 -110l314 112l-1 219l-251 -79l-6 86l84 16l-5 88l-84 -16l4 103l148 30l-8 -79l162 29l38 302z
" />
    <glyph glyph-name="F" unicode="F" horiz-adv-x="550" 
d="M550 466l-97 -33l-5 -28l-52 -17l-5 -144l-65 -15l15 -168l-109 -39l2 -24l-276 -98l64 529l-84 -49l30 284l47 6l10 96l589 74zM59 733l-26 -250l84 49l-64 -533l248 88l-15 172l69 15l3 92l-91 -19l-6 137l107 27l-14 -71l163 54l52 303z" />
    <glyph glyph-name="G" unicode="G" horiz-adv-x="700" 
d="M692 488l29 7l-102 -518l-93 -15l-8 -43l-109 -18l25 92q-8 -4 -14.5 -7.5t-14.5 -6.5q-28 -25 -64 -44t-75.5 -30.5t-81.5 -13.5t-81 6q-51 11 -84.5 53.5t-52 102t-23 129.5t3.5 135q11 90 40 157t68 112q35 76 89 127.5t129 60.5q51 6 88 0.5t62 -20.5l5 55l341 68z
M463 778l-14 -134q-11 28 -24 47.5t-32.5 31t-47.5 15.5t-67 -1q-37 -4 -75 -28t-71 -67t-58 -105t-35 -142q-8 -66 -3.5 -134t22.5 -125t50 -97t78 -50q45 -9 93.5 -3t96.5 28t93 60.5t83 93.5l-46 -172l81 14l84 428l-343 -123l-13 -76l113 34q-36 -63 -71 -85
t-62.5 -13.5t-45 42.5t-17.5 83q-1 57 5 95t22.5 60t44.5 31t70 9q25 0 40.5 -6.5t23.5 -17t11 -22.5t3 -24l207 90l62 314zM358 365q-3 14 -12 22t-20.5 11.5t-24.5 3.5h-25q-9 -33 -7 -102q0 -12 1 -23t3 -20l7 3l15 83l63 22v0z" />
    <glyph glyph-name="H" unicode="H" horiz-adv-x="603" 
d="M634 25l-101 -43l-2 -20l-311 -132l30 234l-84 -36l-3 -20l-206 -89l51 513l-72 -35l28 255l48 14l9 85l377 112l-44 -277l16 5l15 86l236 74l-28 -440l73 30zM551 253l29 446l-162 -51l-41 -238l-95 -34l70 434l-296 -88l-25 -224l72 35l-51 -514l180 78l23 137l104 40
l-44 -344l284 121l23 231z" />
    <glyph glyph-name="I" unicode="I" horiz-adv-x="349" 
d="M299 275l91 25l-47 -253l-97 -34l-5 -27l-268 -96l68 476l-107 -34l43 322l46 12l11 89l373 90zM68 724l-39 -294l107 34l-68 -475l242 86l32 173l-91 -25l108 572z" />
    <glyph glyph-name="J" unicode="J" horiz-adv-x="640" 
d="M671 853q-3 -105 -8 -204q-2 -42 -4.5 -87t-5.5 -88t-6.5 -82.5t-7.5 -70.5q-6 -46 -16 -99.5t-33 -104.5t-63 -94.5t-105 -69.5q-26 -26 -62.5 -45t-84.5 -29q-105 -22 -173.5 2t-104.5 79t-43 134t11 167l46 6q2 23 5 47.5t8 49.5l237 30l24 270l49 13l8 87l329 89v0z
M377 734l-22 -247l149 46q0 -58 -7 -112q-6 -46 -20.5 -92.5t-43.5 -74.5q-12 -12 -31.5 -20.5t-40 -11t-39.5 2.5t-30.5 20.5t-12.5 43.5t15 71l-238 -30q-16 -86 -9 -160.5t42 -125.5t100 -72t163 -1q75 16 121.5 54t72.5 87.5t38 105.5t18 108q4 35 8 79.5t7 91.5
t5.5 94.5t4.5 88.5t3 73.5t2 49.5zM281 396l72 9q-18 -43 -21 -74.5t4.5 -49.5t22 -22t31.5 8q9 29 13.5 59t6.5 55q3 29 2 55z" />
    <glyph glyph-name="K" unicode="K" horiz-adv-x="690" 
d="M513 -56l-33 31l-51 -73l-141 131l-40 -71l-52 20l-39 -69l-202 75l55 381l-75 -23l58 293l41 12l17 88l274 79l-23 -275l174 272l255 -159l-233 -315l5 -3l55 59l181 -130zM563 347l-57 -60l-59 48l230 311l-189 118l-237 -368l32 371l-199 -58l-53 -265l74 23l-56 -391
l182 -68l93 163l183 -170l180 257z" />
    <glyph glyph-name="L" unicode="L" horiz-adv-x="530" 
d="M517 103l-97 -31l-5 -30l-465 -145l61 540l-80 -28l38 267l45 8l13 93l377 71l-96 -500l10 2l14 91l250 55zM365 410l-23 -147l-93 -27l108 565l-297 -56l-34 -237l80 27l-61 -540l439 137l52 316z" />
    <glyph glyph-name="M" unicode="M" horiz-adv-x="738" 
d="M744 70l-102 -44l-2 -19l-272 -116l10 219l-46 -13l-14 -35l-37 -11v-6l-103 -41l-1 -22l-220 -86l55 477l-75 -35l40 341l46 8l11 94l346 57l16 -187l19 6l16 86l295 92l-35 -520l75 28zM649 261l36 522l-221 -69l-62 -320l-14 -4l-42 404l-278 -46l-36 -309l75 35
l-55 -479l193 76l14 268l62 -207l68 20l90 216l-18 -378l247 106l16 192z" />
    <glyph glyph-name="N" unicode="N" horiz-adv-x="655" 
d="M641 285l59 19l-15 -260l-104 -53v-11l-216 -110l-74 167l-80 -28v-25l-256 -91l63 492l-81 -44l36 314l47 15l10 84l238 75l64 -192l27 12l1 72l341 148zM598 232l59 577l-260 -112l-1 -372l-152 457l-179 -56l-33 -283l81 45l-63 -496l229 81l4 274l168 -380l197 101
l11 184z" />
    <glyph glyph-name="O" unicode="O" 
d="M762 351q-7 -47 -31 -94t-59.5 -89t-80 -77t-93.5 -59q-47 -38 -100.5 -62.5t-107.5 -29.5q-77 -8 -143.5 21t-114 80t-71.5 118t-16 136q8 76 34 141.5t70 117.5q35 73 87 124t113.5 81t127.5 38.5t128 -4.5t115.5 -47.5t90 -89.5t51.5 -131.5t0 -173.5zM725 357
q12 78 -0.5 153t-49.5 133t-99 91.5t-149 28.5q-87 -6 -155 -37t-117.5 -82t-79 -120t-38.5 -150q-7 -66 16 -130.5t69 -114t109.5 -77t137.5 -20.5q60 6 120 37t109.5 77t83.5 101t43 110zM453 257q-7 -27 -20.5 -48.5t-30 -36.5t-34.5 -24t-34 -10q-20 -2 -36.5 8
t-27 26.5t-13.5 38t3 42.5q15 52 44.5 81t58.5 38q27 8 47.5 3.5t33 -20t15.5 -40.5t-6 -58zM363 187q11 48 -4 73t-45 25q-10 -18 -18 -42q-4 -16 -2 -29t8 -21.5t14 -13t15 -4.5q17 2 32 12z" />
    <glyph glyph-name="P" unicode="P" horiz-adv-x="585" 
d="M602 726q36 -59 38 -134t-25 -148t-81.5 -135t-133.5 -96q-18 -15 -41 -30l31 -128l-116 -35l6 -28l-291 -86l33 484l-97 -26l36 307q12 6 24 10.5t24 9.5l9 78q122 53 218 70.5t168 8t121 -42t77 -79.5zM602 554q7 81 -24.5 143t-100.5 92.5t-175.5 22.5t-248.5 -69
l-33 -282l96 26l-33 -484l263 78l-36 144q51 10 100.5 37t90 69t68 98t33.5 125zM340 435q-2 -47 -33 -81t-85 -55l-6 200q36 9 63 5q12 -1 23 -5t20 -12t14 -20.5t4 -31.5z" />
    <glyph glyph-name="Q" unicode="Q" 
d="M762 351q-10 -62 -46.5 -121t-88.5 -108l4 -3l118 109l5 -264l-106 -57l8 -19l-174 -98q-17 28 -35 57q-16 25 -35 55t-37 59q-42 -16 -85 -21q-77 -8 -143.5 21t-114 80t-71.5 118t-16 136q8 76 34 141.5t70 117.5q35 73 87 124t113.5 81t127.5 38.5t128 -4.5
t115.5 -47.5t90 -89.5t51.5 -131.5t0 -173.5zM725 357q12 78 -0.5 153t-49.5 133t-99 91.5t-149 28.5q-87 -6 -155 -37t-117.5 -82t-79 -120t-38.5 -150q-7 -66 16 -130.5t69 -114t109.5 -77t137.5 -20.5q20 2 41.5 7.5t49.5 16.5q17 -26 32 -50.5t28 -45.5t23 -37.5
t16 -25.5l157 88l-3 161l-145 -130l-50 69q42 27 77.5 59.5t62.5 67.5t44 72t23 73zM453 257q-2 -9 -6 -19.5t-15 -36.5l-57 98l-31 -59q5 -7 12.5 -19.5t14.5 -25.5t12.5 -23t5.5 -13q-33 -20 -55 -21q-20 -1 -36.5 8.5t-27 26t-13.5 38t3 42.5q15 52 44.5 81t58.5 38
q27 9 47.5 4t33 -20.5t15.5 -40.5t-6 -58z" />
    <glyph glyph-name="R" unicode="R" horiz-adv-x="647" 
d="M486 -80l-28 31l-54 -72l-162 171l-62 -25l3 -19l-244 -100l76 483l-75 -41l29 273q12 9 24.5 17.5t25.5 16.5l6 59q75 56 150.5 86t144 33t124.5 -20.5t92 -74.5q29 -41 39 -84t5.5 -85.5t-20 -83t-36.5 -76.5l194 -178zM525 357l-72 -96l-54 48q36 38 71 87t55 103
t18.5 110t-37.5 107q-28 40 -75.5 61t-106.5 19.5t-126.5 -26.5t-136.5 -76l-26 -244l76 42l-76 -486l215 88l-26 158l259 -273l185 247zM315 423q-6 -29 -13 -46.5t-18 -28.5q-12 -12 -30.5 -20t-33.5 -16l-13 166q35 9 61 7q11 -1 21 -4t17 -10.5t9.5 -19t-0.5 -28.5z
M278 430q3 14 -6.5 18t-24.5 2l6 -79q12 9 17.5 28t7.5 31z" />
    <glyph glyph-name="S" unicode="S" horiz-adv-x="660" 
d="M680 439q32 -40 33 -98t-27.5 -120t-85.5 -121.5t-141 -101.5q-38 -30 -84 -54.5t-103 -41.5q-61 -19 -102 -13.5t-66 25.5t-37 51.5t-14.5 64.5t2 64t11.5 50l43 12q2 22 6 41q-31 -6 -59.5 -6t-51.5 9t-39.5 29t-22.5 54q-6 35 -1.5 72t17 72.5t31.5 69t42 61.5
q29 60 71.5 108t85.5 73q41 24 83.5 32.5t84.5 -16.5l-3 34l323 74l-57 -374l-18 -3q23 -5 43 -16t36 -31zM651 415q-21 26 -52 33.5t-72 2.5q-44 -6 -86 -19t-84 -27q-37 -12 -59.5 -12t-33.5 8t-12 22.5t5 31.5t17.5 35t24.5 33q23 25 40 32t29 0.5t18.5 -25.5t8.5 -45
l191 36l45 293l-238 -55l7 -83q-18 14 -40.5 32.5t-45.5 24.5q-18 5 -43.5 0.5t-64.5 -26.5q-34 -20 -68.5 -58t-60.5 -84.5t-38.5 -98.5t-3.5 -100q5 -26 16 -43t27 -26t36.5 -11.5t44.5 -0.5q25 2 51.5 8t52.5 14t51.5 16t47.5 15q44 14 71 12t38 -15.5t8 -36t-18 -51.5
q-27 -53 -61 -64t-62 15q-9 8 -8.5 28t10.5 40l-184 -53q-6 -19 -9.5 -47.5t-0.5 -58.5t14 -58t34.5 -45.5t61 -22t92.5 12.5q73 22 129 56t95 74t63 82t33 81.5t4.5 73t-21.5 54.5zM387 219q3 21 -9 30q-11 -11 -13.5 -16.5t-0.5 -7.5q11 -11 23 -6z" />
    <glyph glyph-name="T" unicode="T" horiz-adv-x="627" 
d="M626 428l-96 -28l-6 -33l-112 -31l-1 -45l80 37l17 -212l-196 -203l-24 15l-60 -63l-159 99l68 361l-48 -17l-5 -26l-156 -56l51 393l45 8l12 94l658 114zM70 689l-47 -364l130 46l17 88l73 18l-80 -427l143 -89l163 169l-11 141l-87 -40l10 281l78 18l-14 -115l148 42
l56 332z" />
    <glyph glyph-name="U" unicode="U" horiz-adv-x="655" 
d="M662 101l-103 -52l-2 -33l-257 -121l19 128l-93 -99l-26 14l-59 -63l-171 88l44 417l-79 -25l35 270l46 15l11 84l410 131l-41 -190l271 103l-39 -357l58 23zM584 353l39 358l-208 -79l-22 -189l56 30l-30 -159l-151 -66l118 552l-325 -104l-31 -243l78 25l-45 -428
l155 -80l210 225l-33 -188l231 118l18 252zM330 358l-10 -46l23 10l9 48z" />
    <glyph glyph-name="V" unicode="V" horiz-adv-x="585" 
d="M379 -45l-71 25l-25 -73l-234 81l-26 396l-81 -48l-1 304l55 10v91l295 51l-7 -105l11 35l29 3l32 100l329 29zM384 790l-168 -531l34 488l-216 -38v-271l80 47l27 -408l214 -74l276 809z" />
    <glyph glyph-name="W" unicode="W" horiz-adv-x="735" 
d="M618 -75l-78 44l-19 -86l-184 105l-7 53l-28 -101l-73 40l-22 -83l-218 119l13 364l-73 -36l-4 273l56 23l-2 74l285 114l-8 -246l20 62l176 13l9 59l42 -1l17 106l297 -7zM552 783l-66 -411l-49 247l-133 -11l-94 -288l15 452l-208 -83l4 -245l75 36l-15 -377l198 -107
l110 400l39 -321l165 -93l178 796z" />
    <glyph glyph-name="X" unicode="X" horiz-adv-x="705" 
d="M521 -80l-12 20l-63 -60l-82 138l-58 -115l-48 39l-40 -80l-148 122l145 237l-83 101l-60 -63l-164 285l70 46l-23 42l372 247l132 -296l157 246l91 -146l-153 -304l13 -46l58 66l116 -266zM614 330l-64 -72l-36 124l150 299l-48 78l-163 -254l-142 318l-307 -203
l141 -258l62 65l103 -125l-144 -235l128 -105l112 224l123 -206l167 162z" />
    <glyph glyph-name="Y" unicode="Y" horiz-adv-x="630" 
d="M541 10l-221 -189l-14 9l-68 -58l-225 142l68 58l-30 19l127 108l-195 -72l35 323l-84 -34l30 338l49 14l8 85l368 104l-24 -130l324 91zM388 695l-40 -266l75 25l-25 -106l-156 -66l99 523l-285 -81l-28 -309l85 34l-35 -323l305 112l-31 -180l-101 53l-137 -116
l203 -128l190 163l134 736zM255 151l69 -36l11 66z" />
    <glyph glyph-name="Z" unicode="Z" horiz-adv-x="620" 
d="M560 85l-95 -39l-6 -23l-337 -137l-166 107l59 64l-17 11l308 331l-134 -31l9 -32l-231 -58l32 379l49 9l8 92l589 105l15 -346l-171 -209l176 109zM592 818l-518 -92l-30 -352l202 51l-17 61l226 24l-400 -435l148 -95l326 132l59 224l-290 -179l307 372z" />
    <glyph glyph-name="bracketleft" unicode="[" horiz-adv-x="365" 
d="M436 746l-86 -20l-54 -514l92 27l-42 -253l-98 -37l-4 -25l-267 -100l139 961l44 4l14 99l306 26zM207 853l-135 -930l241 90l28 173l-88 -25l63 595l90 21l24 95z" />
    <glyph glyph-name="backslash" unicode="\" horiz-adv-x="518" 
d="M387 -85l-7 14l-66 -46l-370 811l81 14l-34 73l242 43l286 -819zM208 782l-163 -29l357 -782l72 49z" />
    <glyph glyph-name="bracketright" unicode="]" horiz-adv-x="345" 
d="M241 -23l-96 -31l-6 -30l-197 -63l27 185l45 11l13 89l16 4l44 381l-122 -36l52 234l38 8l21 93l335 70zM107 790l-45 -205l120 35l-58 -496l-64 -16l-23 -157l171 55l156 838z" />
    <glyph glyph-name="a" unicode="a" horiz-adv-x="524" 
d="M494 26l-97 -41l-4 -21l-151 -64l2 72q-13 -8 -25 -15q-11 -6 -21.5 -11t-18.5 -7q-28 -7 -62 -11t-66.5 6.5t-60 41t-42.5 92.5q-9 38 -8.5 84t11 92t30.5 88.5t50 73.5q17 41 42 75.5t58 56t75.5 28t93.5 -9.5l5 46l225 47l-53 -410l69 27zM432 182l54 419l-147 -30
l-7 -67q-57 24 -103.5 19t-82.5 -30.5t-61 -66t-38.5 -88t-15 -96.5t8.5 -91q14 -58 39 -86.5t55 -38t62 -6t60 10.5q7 2 17.5 7t22 12t22.5 13.5t19 11.5l-2 -76l127 54l33 153zM324 162q-24 -24 -48 -35q-20 -9 -41.5 -5t-37.5 37q-17 38 -11 77t27 66q10 14 23.5 23.5
t29.5 12.5t33.5 -1t35.5 -19zM242 232q-9 7 -16 10q-5 -23 -2 -44.5t14 -31.5l4 66v0z" />
    <glyph glyph-name="b" unicode="b" horiz-adv-x="520" 
d="M533 287q-25 -217 -225 -315q-71 -62 -186 -94l-161 115l37 417l-75 -23l35 245l46 16l12 83l295 102l-46 -298q57 21 100 19t74 -19.5t51 -47.5t30.5 -64.5t13.5 -70.5t-1 -65zM496 291q4 31 1 64.5t-14 63t-31.5 53t-53 33t-77 3t-104.5 -35.5l47 305l-214 -74
l-32 -218l74 22l-38 -428l151 -107q262 75 291 319zM319 216q-3 -15 -11 -28t-20 -25t-26.5 -22t-28.5 -18q-33 -19 -74 -35l32 197q17 14 42.5 21.5t47.5 2t34.5 -27t3.5 -65.5zM229 161q1 30 -13 44l-9 -57q5 3 11 6t11 7z" />
    <glyph glyph-name="c" unicode="c" horiz-adv-x="476" 
d="M462 255l-68 -11q14 -17 29 -43.5t28 -52.5q15 -31 28 -64q-9 -15 -23.5 -29.5t-31.5 -27.5t-35.5 -24t-36.5 -18q-18 -18 -58 -42.5t-111 -37.5q-36 -7 -75 4.5t-72 37t-57 64.5t-31 88q-10 69 -6.5 122t14.5 93.5t28.5 69t36.5 48.5q16 38 39.5 70t57.5 58
q21 16 43 23.5t43.5 9t41 -2.5t35.5 -11l2 43l239 39zM319 590l-3 -107q-12 22 -31 39.5t-43 25.5t-50 5t-51 -23q-21 -15 -43.5 -41t-39 -67t-23.5 -100t5 -141q7 -46 29.5 -83t54 -61.5t68 -35t69.5 -4.5q52 10 86.5 26.5t54.5 32.5q18 12 33 32q-3 9 -9 23t-12.5 30
t-14 30.5t-14.5 24.5q-32 -20 -70.5 -36t-73 -21t-61 4.5t-35.5 40.5q-8 28 -3.5 55t16 49.5t28 38.5t32.5 20q34 9 51.5 -16t21.5 -65l138 22l49 328zM199 171q-1 23 -5 42t-14 30q-2 -11 -2.5 -23.5t3.5 -25.5q9 -31 40 -29t70 21z" />
    <glyph glyph-name="d" unicode="d" horiz-adv-x="517" 
d="M458 259l67 16l-40 -253l-100 -41l-3 -21l-159 -66l3 61l-39 -13q-16 -5 -31.5 -10t-23.5 -7q-14 -3 -34 -3.5t-42 5.5t-44.5 19.5t-41 38.5t-31 62.5t-15.5 91.5q-2 30 2.5 62.5t15 64t27 60t39.5 50.5q20 57 62 99.5t96 60.5l11 127l49 15l8 84l301 91zM269 733
l-13 -150l64 18l-5 -108q-72 24 -129 5.5t-96 -61.5t-58 -101.5t-16 -115.5q5 -77 28.5 -120t54 -63t61 -22t49.5 2q8 2 26 8t37 12q22 7 47 16l-3 -60l135 56l28 176l-65 -15l76 590zM309 117q-27 -12 -51 -14q-20 -2 -40.5 7t-31.5 38q-11 32 -6 67t22 60q9 14 21 23
t26.5 11.5t31.5 -3t36 -21.5z" />
    <glyph glyph-name="e" unicode="e" horiz-adv-x="493" 
d="M398 239q0 -6 -0.5 -12.5t-1.5 -13.5l-21 -14q24 -25 45 -48.5t44 -49.5q-19 -23 -43 -47q-20 -20 -48.5 -43t-63.5 -41q-23 -20 -55.5 -40.5t-75.5 -30.5q-36 -8 -75 1.5t-72.5 33.5t-58.5 61.5t-32 86.5q-9 58 -5.5 107t16 88.5t31 71t39.5 54.5q14 31 30.5 56.5
t34.5 45t35.5 33.5t32.5 23q46 29 91 33t85.5 -10t74.5 -44.5t57 -71.5t33.5 -90.5t3.5 -102.5zM464 302q4 44 -6 84t-30.5 72.5t-49.5 56t-62.5 34t-70 6.5t-71.5 -26q-22 -13 -52 -41.5t-54.5 -73.5t-36.5 -107t1 -143q8 -46 31 -81.5t55 -58t68 -31.5t69 -2t60.5 22
t47.5 31t34 31t20 23q-6 7 -15.5 18t-20.5 24t-23.5 26.5t-23.5 25.5q-22 -28 -50.5 -47.5t-55.5 -26.5q-16 -4 -30.5 -2t-25.5 10.5t-16.5 25t-4.5 41.5l313 109v0zM283 287q-31 -9 -61 -19q-26 -8 -53 -16.5t-47 -15.5q-2 14 1.5 37t14.5 47t30 44t47 26q26 6 41 -3.5
t22.5 -26.5t8 -37t-3.5 -36z" />
    <glyph glyph-name="f" unicode="f" horiz-adv-x="384" 
d="M487 491l-95 -26l-7 -34l-40 -11l-10 -128l-80 -25l-6 -233l-104 -40l-1 -23l-206 -79l38 291l-65 -20l16 114l46 17l11 81l27 10q6 34 15 71t21.5 71.5t29.5 65t38 52.5q16 35 36 64.5t46 49.5q37 27 70 30.5t57 -6.5l3 25l228 40zM361 776l-10 -83q-9 19 -22 33.5
t-29.5 21t-36.5 3t-44 -21.5q-31 -24 -53.5 -67t-37.5 -93.5t-23.5 -102t-13.5 -92.5l-73 -26l-12 -87l65 20l-38 -290l179 69l6 235l81 25l6 73l-86 -22q3 32 5 60.5t7 53.5q5 24 17 46.5t37 27.5q23 5 38 -14.5t18 -54.5l113 31l54 281z" />
    <glyph glyph-name="g" unicode="g" horiz-adv-x="475" 
d="M449 -31l-225 -234l-21 17l-61 -63l-185 147l52 70l-7 5l54 73h-1q-21 1 -44 19t-41.5 47.5t-28 69t-3.5 84.5q11 69 33 118.5t54 81.5q29 66 70.5 106t88.5 55q20 6 41.5 6.5t42 -3t38.5 -9t31 -11.5l11 45l157 50zM379 563l-17 -69q-6 3 -23 12t-41 16.5t-51 11
t-52 -4.5q-26 -8 -52 -27t-48 -49.5t-39 -73t-25 -97.5q-6 -43 3 -80.5t26 -64.5t38 -43t38 -18q31 -2 51 2t36 12t32.5 18.5t40.5 19.5l-35 -161l-133 51l-74 -100l167 -132l192 199l50 605zM302 178q-17 -14 -38.5 -21t-40 -3.5t-30 21t-9.5 52.5q3 56 20.5 81.5
t39.5 30.5t44 -6t34 -28z" />
    <glyph glyph-name="h" unicode="h" horiz-adv-x="542" 
d="M512 7l-91 -27l-9 -33l-268 -78q8 28 15 61l13.5 63t13.5 71l-88 -30l-4 -28l-141 -47l42 446l-72 -16l29 241l47 17l10 81l306 109l-50 -302q70 28 117.5 27.5t77.5 -21t44.5 -56.5t18 -80t-1.5 -92t-14 -91l69 16zM457 171q11 43 19 92.5t8 95.5t-12.5 83.5t-42.5 56.5
t-81.5 15t-130.5 -42l50 308l-224 -79l-25 -216l71 16l-42 -444l116 38l30 195q2 18 15.5 33t29.5 23q18 8 35 1t22 -36q3 -16 1 -43t-6.5 -59.5t-11.5 -68t-13.5 -68.5t-13 -60.5t-10.5 -44.5l241 70l41 150z" />
    <glyph glyph-name="i" unicode="i" horiz-adv-x="291" 
d="M346 714q-2 -33 -23.5 -62t-55.5 -49l36 10l-61 -357l75 22l-54 -260l-93 -21l-8 -38l-245 -55l86 372l-68 -25l39 190l40 11l13 62q-35 6 -55.5 24.5t-19.5 45.5q1 23 16 44.5t39 38.5q2 26 16.5 49.5t38 42t53.5 31.5t61 19q30 5 60.5 2t55.5 -14.5t40 -32t14 -50.5z
M309 715q0 14 -8.5 27t-25 21t-40 11t-53.5 -2q-29 -5 -54 -16.5t-43.5 -26.5t-29 -32t-10.5 -33q-1 -14 7.5 -26.5t25 -21t40 -11.5t53.5 2q29 5 54 16.5t43.5 26.5t29 32t11.5 33zM195 202l61 360l-191 -51l-33 -161l69 26l-87 -375l217 48l36 175z" />
    <glyph glyph-name="j" unicode="j" horiz-adv-x="309" 
d="M388 718q0 -23 -10.5 -43.5t-28 -38t-40.5 -31t-49 -22.5q-4 -5 -7.5 -9t-8.5 -8l72 17l-41 -600l-202 -209l-21 17l-61 -63l-170 148l151 254l48 -19l38 145l-69 -18l47 193l37 9l18 75q-42 2 -69 21.5t-27 50.5q0 23 15 45t41 40q1 26 15.5 49t37 41.5t51.5 31.5t60 18
q30 5 61 2t55.5 -14.5t40.5 -31.5t16 -50zM350 718q0 15 -9 27.5t-26 21t-40.5 11t-53.5 -2.5q-29 -5 -53.5 -16.5t-42 -26.5t-27.5 -32t-10 -33q0 -14 9 -26.5t26 -21t40.5 -11.5t53.5 2q29 5 53.5 16.5t42 26.5t27.5 32t10 33zM126 501l-40 -166l70 19l-81 -305l-86 34
l-72 -124l153 -134l168 174l37 536z" />
    <glyph glyph-name="k" unicode="k" horiz-adv-x="531" 
d="M408 -58l-37 30l-49 -73l-104 84l-2 -35l-98 47l-5 -88l-167 79l63 454l-65 -18l44 236l42 12l16 88l238 70l-37 -346l123 151l152 -181l-103 -121l151 -147zM414 284l-45 -52l-51 38l155 182l-103 122l-174 -214l45 416l-162 -48l-39 -209l64 18l-64 -464l141 -67l9 160
l209 -169l123 182z" />
    <glyph glyph-name="l" unicode="l" horiz-adv-x="291" 
d="M237 271l72 16l-28 -236l-99 -31l-4 -30l-272 -84l101 539l-67 -20l44 234l42 11l16 89l268 72zM193 223l72 557l-190 -51l-39 -206l67 20l-101 -539l245 76l19 159z" />
    <glyph glyph-name="m" unicode="m" horiz-adv-x="751" 
d="M732 6l-95 -30l-6 -31l-255 -80q5 27 11 58q5 26 11 60t12 69l-85 -26l-5 -31l-162 -50q2 14 5 31q2 14 5.5 33.5t6.5 41.5l-81 -23l-5 -33l-133 -37l37 299l-73 -29l33 233l46 17l11 81l271 100l-16 -96q74 35 127.5 28.5t73.5 -62.5q36 22 72.5 32t69 9t59 -13
t42.5 -34q18 -24 25.5 -58t7.5 -72t-5.5 -77.5t-14.5 -75.5l63 17zM667 186q15 46 24.5 93t12 89t-3 76.5t-21.5 56.5q-10 14 -32.5 23t-54 7t-70 -17t-82.5 -49q-4 36 -17.5 58t-39.5 27t-67 -8.5t-101 -49.5l18 110l-189 -70l-29 -204l73 28l-37 -301l107 30l37 232
q2 18 15.5 32.5t28.5 20.5q17 7 33.5 -0.5t18.5 -34.5q1 -15 -3 -53.5t-10.5 -83.5t-13 -88t-10.5 -67l135 42l35 209q3 17 15 31.5t26 21.5t31 4t25 -26q3 -9 1.5 -34t-6 -59t-10.5 -73t-12.5 -76.5t-12 -69t-9.5 -50.5l228 72l36 170z" />
    <glyph glyph-name="n" unicode="n" horiz-adv-x="534" 
d="M514 6l-94 -31l-7 -30l-264 -84q7 31 14 65q6 29 14 65.5t15 74.5l-98 -36l-5 -28l-140 -48l39 304l-73 -26l37 221l44 18l14 80l274 110l-17 -103q70 27 117 26t76 -22.5t42 -59.5t16 -83t-3 -93.5t-15 -92.5l67 16zM450 182q11 43 20 93t9.5 97.5t-10.5 86.5t-40 59.5
t-80 17.5t-130 -41l17 106l-193 -77l-32 -193l72 26l-39 -305l114 39l34 196q3 18 18 36t32 27q9 5 19.5 7t19.5 -1.5t15 -13t7 -26.5q2 -18 -1 -46.5t-8 -62t-11.5 -70t-13.5 -70t-13 -62t-10 -45.5l236 75l36 163z" />
    <glyph glyph-name="o" unicode="o" horiz-adv-x="531" 
d="M536 251q-6 -38 -25 -76t-47.5 -71.5t-64 -60.5t-74.5 -43q-34 -30 -73.5 -49.5t-79.5 -24.5q-54 -6 -101 15.5t-80 59.5t-50 88t-12 101q6 63 28 115.5t58 91.5q32 76 87.5 122t118.5 63t125.5 4.5t109.5 -54t71 -112t9 -169.5zM499 257q9 58 0 113t-35 97.5t-69 66.5
t-103 20t-107.5 -26.5t-81.5 -60t-55 -88.5t-27 -111q-5 -49 11.5 -96t48 -83t75.5 -56t95 -15q42 5 83.5 27.5t76 56t58.5 74.5t30 81zM345 206q-7 -24 -20 -44t-28.5 -34t-33 -21.5t-32.5 -8.5q-19 -1 -35 7.5t-26 23.5t-13 35t3 40q15 47 43.5 73t55.5 34q26 8 45.5 3.5
t31.5 -18.5t14.5 -37t-5.5 -53zM257 145q7 38 -7 58t-41 20q-4 -7 -7 -14.5t-6 -15.5q-4 -13 -1.5 -24t7.5 -18.5t12.5 -11.5t14.5 -4q16 2 28 10z" />
    <glyph glyph-name="p" unicode="p" horiz-adv-x="513" 
d="M530 380q3 -44 -7.5 -94t-34 -96t-60 -81.5t-85.5 -49.5q-30 -32 -67 -48l-7 -132l-103 -38l-1 -24l-228 -85l58 499l-65 -25l32 257l48 25l9 72l201 103l-5 -102q58 32 113 37t98.5 -17t71.5 -72t32 -129zM493 378q-4 76 -28.5 116t-58.5 55t-72 11t-70 -17
q-7 -3 -19.5 -9t-25 -13.5t-24.5 -14.5t-20 -12l5 106l-126 -65l-29 -230l65 25l-58 -499l201 75l6 119l-52 -14l-2 100q52 -19 96 -17.5t78.5 18.5t60.5 46.5t43 65.5t24.5 76t5.5 78zM242 338q39 6 59 -10.5t25 -42t-4 -54t-28 -48.5t-47 -25.5t-62 16.5l1 144l28 12t28 8
z" />
    <glyph glyph-name="q" unicode="q" horiz-adv-x="503" 
d="M463 107l54 12l-27 -240l-100 -36l-3 -26l-217 -77l36 240q-24 -12 -49 -22q-21 -8 -46 -13.5t-46 -1.5q-34 6 -58.5 31.5t-39 62t-19.5 80.5t0 87q8 69 32.5 125t58.5 91q27 62 67.5 103t83.5 50q23 5 45.5 4.5t43.5 -3.5t39.5 -8.5t31.5 -10.5l7 48l168 50zM391 574
l-11 -75l-24 12t-43 17t-55 11.5t-60 -2.5q-23 -5 -48 -25.5t-47.5 -54t-39 -78t-23.5 -97.5q-5 -43 0 -85t19 -76t36 -57.5t52 -28.5q19 -3 42.5 2t45.5 13.5t40 18t27 14.5l-37 -244l190 67l19 165l-54 -12l61 542zM309 149q-15 -13 -36 -22.5t-41 -7.5t-34 20t-14 59
q0 53 18.5 83.5t44.5 43.5q24 12 50 8.5t40 -23.5zM244 227q-7 9 -17 12q-5 -18 -5 -41q0 -28 10 -38l12 67v0z" />
    <glyph glyph-name="r" unicode="r" horiz-adv-x="421" 
d="M459 585q12 -25 12 -63.5t-8.5 -80t-21.5 -81.5t-26 -67l-84 -25q-3 -10 -6.5 -18t-7.5 -16l-92 -28l-2 -177l-105 -42v-21l-198 -80l74 378l-72 -35l37 238l45 18l12 80l222 88l-13 -99q28 20 63 38.5t68 27t61 2t42 -36.5zM426 568q-10 21 -29 26t-42 -2.5t-48.5 -23.5
t-50 -36.5t-46 -43t-36.5 -41.5l19 148l-143 -57l-32 -207l73 35l-74 -380l169 68l3 266q0 17 4 33t11.5 28t17.5 17.5t23 2.5q20 -5 28.5 -34.5t1.5 -75.5l113 33q12 25 22.5 59.5t17 69.5t7 66t-8.5 49z" />
    <glyph glyph-name="s" unicode="s" horiz-adv-x="506" 
d="M485 345l-32 -6q21 -6 36.5 -18.5t22.5 -32.5q13 -37 7 -81t-29.5 -86.5t-63.5 -79.5t-95 -60q-29 -26 -66 -45.5t-84 -30.5q-70 -15 -110.5 1t-60 45.5t-21 63.5t6.5 56l52 16q-3 19 -1 40q-20 -2 -38.5 0t-33 10t-25 22.5t-14.5 37.5q-5 28 -1.5 57t14 56.5t26.5 53
t35 46.5q16 40 42.5 75.5t60.5 59.5t73 32t81 -6l2 37l255 54zM305 577l-4 -71q-35 26 -71.5 33.5t-73.5 -12.5q-27 -14 -53 -41t-45 -61t-28 -72t-2 -74q8 -38 32 -50.5t59 -9.5q18 1 37.5 5t39.5 10q20 5 39 11.5t36 11.5q38 11 54.5 1.5t19 -28t-4.5 -40t-17 -34.5
q-9 -12 -19.5 -22.5t-22 -16t-22.5 -4.5t-21 10q-5 5 -11 23t-7 36l-135 -41q-6 -21 -3 -51t21.5 -55t55.5 -38t99 1q66 14 112.5 47.5t74 74t35.5 82.5t-3 74q-9 25 -35 33.5t-60 7.5t-70.5 -9.5t-66.5 -17.5q-38 -12 -56 1t-11 41q5 20 19.5 42t30.5 33q23 16 37.5 20.5
t23.5 -2.5t14 -24.5t9 -46.5l139 23l30 237z" />
    <glyph glyph-name="t" unicode="t" horiz-adv-x="359" 
d="M374 441l-103 -31l-33 -145l97 64l32 -213l-157 -189l-32 17l-54 -65l-158 88l21 357l-56 -16l-2 96l56 19l-1 79l14 5l9 136l51 16l5 83l287 91l-55 -263l85 20zM246 519l54 259l-201 -64l-15 -218l-62 -21l1 -71l58 17l-23 -367l143 -79l127 152l-21 139l-126 -82
l57 255l100 30l3 73z" />
    <glyph glyph-name="u" unicode="u" horiz-adv-x="517" 
d="M517 72l-102 -52l-1 -22l-199 -102l13 86l-45 -49l-28 13l-58 -63l-138 65l42 331l-60 -19l27 202l45 11l12 90l318 70l-46 -214l17 8l9 74l198 92l-40 -285l65 23zM436 252l38 278l-116 -54l-29 -245l-121 -53l86 406l-235 -52l-23 -174l60 19l-44 -342l122 -56l163 175
l-25 -145l170 87l20 180z" />
    <glyph glyph-name="v" unicode="v" horiz-adv-x="479" 
d="M308 -61l-66 27l-28 -74l-217 88l9 291l-85 -22l37 233l43 9l15 92l227 46l-11 -200l10 2l30 97l274 45zM301 495l-102 -333l-18 6l22 415l-154 -32l-33 -205l83 21l-9 -299l197 -80l201 537z" />
    <glyph glyph-name="w" unicode="w" horiz-adv-x="708" 
d="M547 -62l-69 30l-26 -76l-196 83l-18 -44l-64 38l-30 -81l-151 92l9 291l-85 -22l37 233l43 9l15 92l226 46l-7 -198l4 1l33 95l202 45l33 -15l30 122l240 -76zM560 631l-112 -441l-12 1l-3 334l-136 -30l-96 -279l-15 4l13 363l-154 -32l-33 -205l83 21l-9 -300l131 -80
l124 339l7 -263l176 -74l201 590z" />
    <glyph glyph-name="x" unicode="x" horiz-adv-x="515" 
d="M341 -69l-13 20l-63 -61l-92 143l-50 -80l-41 30l-46 -74l-106 76l51 70l-6 4l89 122l-129 197l63 61l-15 23l212 206l81 -171l140 192l98 -138l-154 -235l13 -17l62 71l106 -245zM424 301l-52 -60l-58 72l155 237l-53 75l-147 -201l-86 181l-152 -149l132 -203
l-136 -185l85 -61l110 177l125 -194l150 144z" />
    <glyph glyph-name="y" unicode="y" horiz-adv-x="479" 
d="M443 -32l-205 -207l-21 15l-62 -62l-188 138l60 124l12 -4l18 37l-84 73l23 163l-71 -18l25 238l47 12l9 87l318 84l-39 -212l18 9l14 76l186 87zM350 495l-47 -268l-102 -40l75 410l-235 -62l-22 -211l72 18l-25 -175l78 -67l146 46l-33 -150l-143 44l-51 -105l171 -125
l173 175l53 561zM159 65l70 -21l10 47z" />
    <glyph glyph-name="z" unicode="z" horiz-adv-x="462" 
d="M440 359l-131 -114l153 27l-31 -196l-97 -31l-5 -30l-403 -128l34 224l48 36l9 58l100 75l-144 -34l6 211l53 5l3 98l437 44zM71 526l-5 -184l284 68l-298 -226l-31 -199l377 120l19 121l-233 -41l220 193l25 184z" />
    <glyph glyph-name="uni00A0" unicode="&#xa0;" horiz-adv-x="500" 
 />
    <glyph glyph-name="copyright" unicode="&#xa9;" 
d="M752 351q-7 -47 -31 -94t-59.5 -89t-80 -77t-93.5 -59q-47 -38 -100.5 -62.5t-107.5 -29.5q-77 -8 -143.5 21t-114 80t-71.5 118t-16 136q8 76 34 141.5t70 117.5q35 73 87 124t113.5 81t127.5 38.5t128 -4.5t115.5 -47.5t90 -89.5t51.5 -131.5t0 -173.5zM715 357
q12 78 -0.5 153t-49.5 133t-99 91.5t-149 28.5q-87 -6 -155 -37t-117.5 -82t-79 -120t-38.5 -150q-7 -67 16 -131.5t69 -113.5t109.5 -76.5t137.5 -20.5q60 6 120 37t109.5 77t83.5 101t43 110zM613 303q-15 -57 -44 -104.5t-67 -80t-84 -48t-96 -9.5t-89 27t-66 52.5
t-41.5 72.5t-15.5 89q-1 53 10 104.5t38.5 96t73 79t112.5 53.5q45 12 86 5t74.5 -28.5t59.5 -55t40.5 -74.5t17.5 -87t-9 -92zM518 287l-45 -7q14 -18 25 -37t18 -33q22 32 22 69t-12 68zM417 582l-17 -105q-9 17 -23 30t-31 19t-36 4t-38 -16q-15 -12 -31.5 -31t-29 -49.5
t-17.5 -74.5t4 -105q5 -34 21.5 -61t40 -44.5t50 -25t50.5 -3.5q34 6 69.5 21.5t58.5 42.5q-6 11 -15.5 29t-18.5 31q-24 -15 -51.5 -26.5t-51.5 -14.5t-42.5 4.5t-24.5 31.5q-6 21 -3 42.5t12 38.5t22 29.5t26 15.5q26 8 40 -11t18 -49l86 15l29 216z" />
    <glyph glyph-name="registered" unicode="&#xae;" 
d="M752 351q-7 -47 -31 -94t-59.5 -89t-80 -77t-93.5 -59q-47 -38 -100.5 -62.5t-107.5 -29.5q-77 -8 -143.5 21t-114 80t-71.5 118t-16 136q8 76 34 142t70 117q35 73 87 124t113.5 81t127.5 38.5t128 -4.5t115.5 -47.5t90 -89.5t51.5 -131.5t0 -173.5zM715 357
q12 78 -0.5 153t-49.5 133t-99 91.5t-149 28.5q-87 -6 -155 -37t-117.5 -82t-79 -120t-38.5 -150q-7 -67 16 -131.5t69 -113.5t109.5 -76.5t137.5 -20.5q60 6 120 37t109.5 77t83.5 101t43 110zM613 303q-15 -57 -44 -103.5t-68 -78t-85.5 -46t-95.5 -8.5q-101 13 -154.5 76
t-55.5 159q-1 53 10 104.5t38.5 96t73 79t112.5 53.5q68 18 125 -5.5t95 -73t52.5 -117t-3.5 -136.5zM530 286q2 30 -3 57q-5 -8 -10.5 -16.5t-12.5 -16.5l26 -24v0zM451 306q22 24 40 51.5t26.5 57t4.5 59t-26 58.5q-16 22 -43.5 33t-61.5 9t-73 -17.5t-79 -46.5l-9 -135
l44 26l-20 -251l94 -16l-10 124l107 -95l75 82zM149 280q4 -44 23 -78l7 96zM410 366q-7 -41 -22 -57q-9 -11 -23.5 -17.5t-26.5 -12.5l-15 128q28 8 48 7q17 -1 30.5 -11t8.5 -37z" />
    <glyph glyph-name="paragraph" unicode="&#xb6;" horiz-adv-x="337" 
 />
    <glyph glyph-name="divide" unicode="&#xf7;" horiz-adv-x="482" 
d="M444 307l-92 -17l-9 -41l-24 -5l40 -191l-120 -10l10 -47l-187 -16l-18 134l62 27l-8 61l-134 -25l20 155l46 13l11 87l47 13l17 130l47 21l10 76l246 109l-64 -265l160 43zM196 646l-16 -130l133 31l41 169zM75 402l-16 -130l354 68l38 166zM280 248l-142 -61l15 -114
l161 14z" />
    <glyph glyph-name="endash" unicode="&#x2013;" horiz-adv-x="482" 
d="M444 308l-92 -18l-9 -41l-397 -77l20 155l46 13l11 87l479 132zM57 397l-16 -129l372 72l38 166z" />
    <glyph glyph-name="emdash" unicode="&#x2014;" horiz-adv-x="594" 
d="M548 322l-91 -15l-10 -43l-493 -84l20 155l46 11l11 89l574 138zM65 405l-16 -130l468 80l38 167z" />
    <glyph glyph-name="quoteleft" unicode="&#x2018;" horiz-adv-x="261" 
d="M152 461l3 -75l-111 28l-81 253l74 18l-26 80l237 59l13 -390zM212 776l-153 -38l75 -234l88 -22z" />
    <glyph glyph-name="quoteright" unicode="&#x2019;" horiz-adv-x="301" 
d="M179 453h-61l-33 -55l-132 1l105 291h24l38 104l267 7zM146 757l-95 -266h107l162 271z" />
    <glyph glyph-name="quotedblleft" unicode="&#x201c;" horiz-adv-x="442" 
d="M410 362l-97 16l-5 -67l-113 18l-7 133l-38 10l5 -76l-111 28l-91 242l77 19l-30 78l237 59l4 -50l207 39zM269 739l18 -319l89 -15l30 360zM203 775l-153 -38l84 -223l87 -22z" />
    <glyph glyph-name="quotedblright" unicode="&#x201d;" horiz-adv-x="456" 
d="M333 463h-55l-38 -55l-93 1l-7 -17l-65 22l-29 -71l-108 36l68 320l39 7l20 95l262 48l-26 -63l257 6zM313 749l-106 -248h106l172 252zM97 768l-65 -301l87 -28l147 361z" />
    <glyph glyph-name="bullet" unicode="&#x2022;" horiz-adv-x="337" 
d="M341 369q-5 -27 -18.5 -51.5t-33.5 -45.5t-44.5 -36t-50.5 -23q-25 -28 -58 -45t-67 -17q-27 0 -46.5 10.5t-30.5 28.5t-14 42t2 52q5 29 21.5 57t40.5 48q9 28 24.5 54t38 46t51 32t62.5 12q35 0 60.5 -14t41 -36.5t21 -52t0.5 -61.5zM304 375q9 52 -14.5 86.5
t-71.5 34.5q-25 0 -49 -11t-44 -30t-34 -43t-19 -50q-9 -54 10.5 -86.5t66.5 -32.5q25 0 50.5 11t47.5 29.5t37.5 42.5t19.5 49z" />
    <glyph glyph-name="ellipsis" unicode="&#x2026;" horiz-adv-x="885" 
d="M677 55l-76 -20l-21 -39l-132 -35l18 85l-5 -17l-89 -21l-11 -38l-124 -29l-2 84l-80 -13l-4 -42l-170 -29l31 167l43 16l15 83l210 76l-17 -166l27 11l-1 74l250 101l-47 -165l32 7l20 93l262 51zM576 206l-32 -148l108 29l82 150zM327 177l2 -140l102 23l51 180z
M103 179l-26 -143l143 25l17 166z" />
    <glyph glyph-name="trademark" unicode="&#x2122;" horiz-adv-x="718" 
d="M704 396l-103 -48l-1 -15l-107 -51l13 132q-10 -3 -17.5 -5.5t-11.5 -3.5l-24 -37l-42 -13l-4 14q-9 -4 -18 -7.5t-18 -6.5l-2 -29l-121 -41l46 349l-42 -8l-7 -227l-105 -25v-35l-133 -33l53 249l-108 -31l23 151l44 7l14 94l356 62l-12 -61l158 34l8 -95l12 42l170 53z
M586 729l-49 -136l-36 173l-111 -24l-47 -359l94 32l17 186l45 -151l26 8l83 132l-20 -207l80 38l17 338zM66 744l-19 -123l109 32l-53 -250l105 26l3 227l109 22l22 114z" />
    <glyph glyph-name="uniF8FF" unicode="&#xf8ff;" horiz-adv-x="1545" 
d="M1500 690v27l-10 -27h-3l-10 27h-1v-27h-3v31h6l10 -25l9 25h6v-31h-4zM1459 718v-28h-4v28h-9v3h23v-3h-10zM1432 713q11 -14 6.5 -32.5t-16.5 -28.5q-15 -14 -30 -17.5t-38 -4.5q4 2 9 8.5t6 11.5q-5 -8 -21 -14.5t-33 -11.5v-15h-36v-200h-21v-4q0 -91 -42.5 -163.5
t-125.5 -123.5q2 -18 -3.5 -39t-19 -41t-35.5 -36t-54 -23q-7 -2 -11 6q-3 7 3 12q10 6 17.5 17.5t10.5 24.5q2 7 2 16.5t-5 18.5q-123 -44 -283 -44q-111 0 -204 21t-164 63v-62q-45 17 -87 43.5t-75 64t-53 86.5t-20 111q0 31 7 60.5t18.5 55t26.5 46t30 33.5q-7 2 -18 7
t-19 10q5 -10 15 -15q-6 -1 -15 -1t-19.5 2.5t-21.5 7.5t-20 14q-18 19 -14.5 37.5t14.5 26.5q8 7 23.5 8.5t28.5 -8.5q11 8 24.5 8.5t24.5 -6.5q10 -5 12 -13.5t0.5 -17t-5.5 -15t-7 -8.5q2 -7 5 -13t8 -8q2 2 4.5 4t5.5 4q62 95 190 149t305 54q125 0 227.5 -26.5
t174.5 -77.5q20 1 41.5 2t39.5 1q38 0 72.5 1t45.5 1q-5 9 -2.5 21t12.5 19q14 9 27.5 7t23.5 -11q8 8 26 11t32 -14zM1421 690q-1 12 -8.5 16t-12.5 4t-11.5 -4.5t-6.5 -12.5q-1 -8 4 -14t12 -6q2 -11 -10 -21q10 4 17 10q6 5 11.5 12.5t4.5 15.5zM1370 690q0 13 -8.5 17
t-13.5 4t-11 -4.5t-7 -12.5q0 -9 5 -14.5t12 -6.5q2 -12 -11 -20q9 4 17 10q7 5 12.5 12t4.5 15zM1329 664q-9 4 -14 13v-30q6 5 9 8.5t5 8.5zM1199 606l-9 -1q2 -3 4.5 -6.5t4.5 -6.5v14zM1294 659h-111v-30h36v-201l39 -1v202h36v30zM1165 658l-79 -3v-233l36 2v57l40 2
v34l-40 -3l4 111l39 2v31zM1022 650l-52 -4l-43 -243l37 6l6 33l60 5l9 -29l37 3zM926 496q-8 -26 -28 -44l15 -15l13 59v0zM870 451q14 12 25 27q9 13 16.5 31t5.5 41q-2 38 -19.5 55.5t-38.5 24.5q-25 8 -55 4v-253l35 7l-1 43l39 -36l40 7zM781 574q-29 -9 -47 -29.5
t-19 -50.5q-1 -27 18.5 -45t47.5 -19v144zM787 412q-25 0 -44 9q-17 8 -30.5 24.5t-15.5 49.5q-1 30 12 49.5t30 30.5q19 13 43 21v37q-36 -9 -63 -27q-23 -16 -42.5 -43.5t-18.5 -72.5q1 -40 18.5 -63t39.5 -34t42.5 -13.5t28.5 -1.5v34zM1240 405q0 1 -0.5 1.5t-0.5 2.5
h-40v149q-7 12 -15.5 23.5t-17.5 22.5l-21 -1v-69l37 2v-73l-40 -3v-56l-114 -10l-11 31l-25 -3l-8 -31q-20 -2 -53.5 -7.5t-56.5 -10.5l-12 10v-13q-10 -2 -21 -4q-9 -2 -20 -4l-22 -4q-20 -4 -41 -1.5t-40 10t-35 19.5t-25 28v-87l-144 -47v79l-17 -39l-18 36v-89l-76 -31
l1 38q-13 -27 -31 -46.5t-41 -19.5q-24 0 -41 15t-28 37.5t-16.5 49t-6.5 49.5q-1 17 3 44t14.5 52t28.5 43t45 18t44.5 -16.5t26.5 -41.5v74l62 21l30 -48l20 61l143 52v-52q17 36 54 59.5t81 28.5q121 14 146 -82l15 93l85 5l26 -108v110h5q2 0 5.5 0.5t7.5 0.5
q-69 43 -163 65t-207 22q-143 0 -256 -37t-182 -107l-4 -4l-4 -4q15 8 31 14.5t32 9.5v-98q-31 -6 -55.5 -24t-41 -43t-25.5 -55t-9 -60q0 -39 14 -71.5t35.5 -57.5t47.5 -43t49 -27v-17q69 -43 162.5 -65t205.5 -22q163 0 284 45q7 3 12 -4q15 -23 9 -55q-5 -15 -10 -25
q19 10 32 24t20.5 29.5t10 31t0.5 27.5q0 7 5 10q81 48 123 117t42 156zM636 586l-36 -12v-248l36 12v248zM570 565l-39 -14l-36 -95l-41 73l-32 -12v-252l36 13v161l39 -61l38 91l-1 -163l36 12v247zM188 614q-1 8 -7 12.5t-11 4.5t-12.5 -4t-8.5 -17q0 -8 5 -15t11 -12
q7 -6 17 -10q-13 8 -11 20q8 1 13 6.5t4 14.5zM137 613q-1 8 -7 12.5t-12 4.5q-5 0 -12.5 -4t-7.5 -16q0 -8 5 -15.5t11 -12.5q7 -6 16 -10q-12 10 -10 20q8 1 13 7t4 14zM403 354q0 19 -3 43.5t-11.5 46.5t-22.5 37t-35 15t-35.5 -16t-23 -37.5t-12 -44.5t-3.5 -38
q1 -17 6 -39.5t14 -43t23 -34.5t32 -14q15 0 27.5 12t22.5 31t15.5 41t5.5 41zM325 138q-26 9 -52.5 28t-48 46.5t-35 63t-12.5 76.5q2 60 22.5 98t45.5 61q29 26 65 39v54q-51 -19 -91 -53q-17 -15 -33.5 -34t-29 -44t-20 -55.5t-7.5 -67.5q0 -36 8.5 -66.5t22.5 -56
t31.5 -45.5t35.5 -36q43 -37 98 -61v53zM976 471l22 127l26 -123zM884 544q2 -14 -5.5 -27t-16.5 -23q-11 -11 -24 -20v116q12 -2 22 -8q8 -5 15.5 -14t8.5 -24zM366 365q0 -41 -9 -68t-26 -28q-9 0 -16 10.5t-12 25.5t-7.5 31t-2.5 27q0 14 2.5 31t7 32t11.5 25.5t16 10.5
q18 0 27 -28.5t9 -68.5zM1000 516l-5 -28l11 1zM855 517q5 3 7.5 9t2.5 12t-2.5 11.5t-7.5 8.5v-41v0zM344 364q0 29 -3.5 48.5t-10.5 19.5q-4 0 -6.5 -7t-4.5 -17.5t-3 -22.5t-1 -22q0 -8 1 -19t3.5 -21.5t5 -17.5t5.5 -7q7 0 10.5 19t3.5 47z" />
    </font>
</defs>
</svg>
